# xmcd
#
# Track frame offsets:
#	150
#	11001
#	22581
#	30741
#	41269
#	51662
#	67160
#	79536
#	90206
#	103808
#	112906
#	124124
#	137406
#	149229
#	159660
#	174244
#	183556
#	193680
#	208269
#	218024
#
# Disc length: 3073
#
# Revision: 1
# Processed by: cddbd v1.5.1PL0 Copyright (c) Steve Scherf et al.
# Submitted via: dBpowerAMP V4.0
# Normalized: r0:DSETVAR1,TDELIM( - )
#
DISCID=150bff14
DTITLE=Various Artist - Country Greats CD11
DYEAR=1900
DGENRE=
TTITLE0=Bill and Boyd - Put Another Log On The Fire
TTITLE1=Donna Fargo - The Happiest Girl In The Whole USA
TTITLE2=Don Gibson - Blue Blue Day
TTITLE3=Ferlin Husky - The Wings Of A Dove
TTITLE4=Jim Brumby - A Truckie Headin' Home
TTITLE5=Red Simpson - I'm A Truck
TTITLE6=Bobby Helms - Fraulein
TTITLE7=Reg Lindsay - On The Road Again
TTITLE8=Johnny Russell - Baptism Of Jesse Taylor
TTITLE9=Conway Twitty - I Wonder If You Told Her About Me
TTITLE10=Lee Conway - Mama Lou
TTITLE11=Kenny Rogers - Shine On Ruby Mountain
TTITLE12=Willie Nelson - I Hope So
TTITLE13=Patsy Cline - Lovesick Blues
TTITLE14=Johnny Paycheck - A Good Year For The Roses
TTITLE15=The Harden Trio - Tippy Toeing
TTITLE16=Waylon Jennings - Burning Memories
TTITLE17=Red Foley - Old Shep
TTITLE18=Jimmy C Newman - Alligator Man
TTITLE19=Gene Autry - It Makes No Difference Now
EXTD=
EXTT0=
EXTT1=
EXTT2=
EXTT3=
EXTT4=
EXTT5=
EXTT6=
EXTT7=
EXTT8=
EXTT9=
EXTT10=
EXTT11=
EXTT12=
EXTT13=
EXTT14=
EXTT15=
EXTT16=
EXTT17=
EXTT18=
EXTT19=
PLAYORDER=
